{"asset":{"version":"2.0","generator":"THREE.GLTFExporter r164"},"scenes":[{"nodes":[1,4,7,10]}],"scene":0,"nodes":[{"mesh":0},{"matrix":[1,0,0,0,0,2.220446049250313e-16,-1,0,0,1,2.220446049250313e-16,0,0,-99,0,1],"name":"background","children":[0]},{"matrix":[1,0,0,0,0,9.999999996956888e-7,-0.9999999999995001,0,0,0.9999999999995001,9.999999996956888e-7,0,0,0.9999999999994994,9.999999999998327e-7,1],"camera":0},{},{"children":[2,3]},{"extras":{"id":"23629","decal":false},"mesh":1},{"matrix":[0.05,0,0,0,0,1.1102230246251566e-17,0.05,0,0,-0.05,1.1102230246251566e-17,0,0,0,0,1],"children":[5]},{"children":[6]},{"extras":{"id":"38861","decal":false},"mesh":2},{"matrix":[0.03695627267280745,0,0,0,0,8.20594096513526e-18,0.03695627267280745,0,0,-0.03695627267280745,8.20594096513526e-18,0,0,0,0,1],"children":[8]},{"matrix":[1,0,0,0,0,1,0,0,0,0,1,0,0,0.05,0,1],"children":[9]}],"bufferViews":[{"buffer":0,"byteOffset":0,"byteLength":48,"target":34962,"byteStride":12},{"buffer":0,"byteOffset":48,"byteLength":48,"target":34962,"byteStride":12},{"buffer":0,"byteOffset":96,"byteLength":32,"target":34962,"byteStride":8},{"buffer":0,"byteOffset":128,"byteLength":12,"target":34963},{"buffer":0,"byteOffset":140,"byteLength":348336,"target":34962,"byteStride":12},{"buffer":0,"byteOffset":348476,"byteLength":232224,"target":34962,"byteStride":8},{"buffer":0,"byteOffset":580700,"byteLength":348336,"target":34962,"byteStride":12},{"buffer":0,"byteOffset":929036,"byteLength":232224,"target":34962,"byteStride":8},{"buffer":0,"byteOffset":1161260,"byteLength":232224,"target":34962,"byteStride":8},{"buffer":0,"byteOffset":1393484,"byteLength":411696,"target":34962,"byteStride":12},{"buffer":0,"byteOffset":1805180,"byteLength":274464,"target":34962,"byteStride":8},{"buffer":0,"byteOffset":2079644,"byteLength":411696,"target":34962,"byteStride":12},{"buffer":0,"byteOffset":2491340,"byteLength":274464,"target":34962,"byteStride":8},{"buffer":0,"byteOffset":2765804,"byteLength":274464,"target":34962,"byteStride":8}],"buffers":[{"byteLength":3040268,"uri":"data:application/octet-stream;base64,"}],"accessors":[{"bufferView":0,"componentType":5126,"count":4,"max":[46.63076400756836,46.63076400756836,0],"min":[-46.63076400756836,-46.63076400756836,0],"type":"VEC3"},{"bufferView":1,"componentType":5126,"count":4,"max":[0,0,1],"min":[0,0,1],"type":"VEC3"},{"bufferView":2,"componentType":5126,"count":4,"max":[1,1],"min":[0,0],"type":"VEC2"},{"bufferView":3,"componentType":5123,"count":6,"max":[3],"min":[0],"type":"SCALAR"},{"bufferView":4,"componentType":5126,"count":29028,"max":[5.140000343322754,5.138222694396973,1.1799999475479126],"min":[-5.140000343322754,-5.138222694396973,-1.1799999475479126],"type":"VEC3"},{"bufferView":5,"componentType":5126,"count":29028,"max":[1,1],"min":[0,0],"type":"VEC2"},{"bufferView":6,"componentType":5126,"count":29028,"max":[0.9995331168174744,0.9995331168174744,1],"min":[-0.9995328187942505,-0.9995328187942505,-1],"type":"VEC3"},{"bufferView":7,"componentType":5126,"count":29028,"max":[0.9998322129249573,0.999832272529602],"min":[0.00016773954848758876,0.0001676815445534885],"type":"VEC2"},{"bufferView":8,"componentType":5126,"count":29028,"max":[0.9998322129249573,0.999832272529602],"min":[0.00016773954848758876,0.0001676815445534885],"type":"VEC2"},{"bufferView":9,"componentType":5126,"count":34308,"max":[5.134719371795654,5.140047550201416,1.1800000667572021],"min":[-5.134719371795654,-5.140047550201416,-1.1800000667572021],"type":"VEC3"},{"bufferView":10,"componentType":5126,"count":34308,"max":[1,1],"min":[0,0],"type":"VEC2"},{"bufferView":11,"componentType":5126,"count":34308,"max":[0.9995325803756714,0.9995293617248535,1],"min":[-0.9995324611663818,-0.9994938373565674,-1],"type":"VEC3"},{"bufferView":12,"componentType":5126,"count":34308,"max":[0.999832272529602,0.9998322129249573],"min":[0.0001677263790043071,0.0001679004344623536],"type":"VEC2"},{"bufferView":13,"componentType":5126,"count":34308,"max":[0.999832272529602,0.9998322129249573],"min":[0.0001677263790043071,0.0001679004344623536],"type":"VEC2"}],"materials":[{"pbrMetallicRoughness":{"baseColorFactor":[0.057805430183792694,0.057805430183792694,0.057805430183792694,1],"metallicFactor":0,"roughnessFactor":0.9},"extensions":{"KHR_materials_unlit":{}}},{"pbrMetallicRoughness":{"metallicFactor":0,"roughnessFactor":0.04,"baseColorTexture":{"index":0,"texCoord":0}},"doubleSided":true,"extensions":{"KHR_materials_iridescence":{"iridescenceFactor":1,"iridescenceIor":1.3,"iridescenceThicknessMinimum":100,"iridescenceThicknessMaximum":400}}},{"pbrMetallicRoughness":{"metallicFactor":0,"roughnessFactor":0.04,"baseColorTexture":{"index":1,"texCoord":0}},"doubleSided":true,"extensions":{"KHR_materials_iridescence":{"iridescenceFactor":1,"iridescenceIor":1.3,"iridescenceThicknessMinimum":100,"iridescenceThicknessMaximum":400}}}],"meshes":[{"primitives":[{"mode":4,"attributes":{"POSITION":0,"NORMAL":1,"TEXCOORD_0":2},"indices":3,"material":0}]},{"primitives":[{"mode":4,"attributes":{"POSITION":4,"TEXCOORD_0":5,"NORMAL":6,"TEXCOORD_1":7,"TEXCOORD_2":8},"material":1}]},{"primitives":[{"mode":4,"attributes":{"POSITION":9,"TEXCOORD_0":10,"NORMAL":11,"TEXCOORD_1":12,"TEXCOORD_2":13},"material":2}]}],"cameras":[{"type":"perspective","perspective":{"aspectRatio":1,"yfov":0.8726646259971648,"zfar":2000,"znear":0.1}}],"textures":[{"sampler":0,"source":0},{"sampler":1,"source":1}],"samplers":[{"magFilter":9729,"minFilter":9987,"wrapS":33071,"wrapT":33071},{"magFilter":9729,"minFilter":9987,"wrapS":33071,"wrapT":33071}],"images":[{"mimeType":"image/png","uri":"data:image/png;base64,"},{"mimeType":"image/png","uri":"data:image/png;base64,"}],"extensionsUsed":["KHR_materials_unlit","KHR_materials_iridescence"]}