{"asset":{"version":"2.0","generator":"THREE.GLTFExporter r164"},"scenes":[{"nodes":[1,4,7]}],"scene":0,"nodes":[{"mesh":0},{"matrix":[1,0,0,0,0,2.220446049250313e-16,-1,0,0,1,2.220446049250313e-16,0,0,-99,0,1],"name":"background","children":[0]},{"matrix":[1,0,0,0,0,9.999999996956888e-7,-0.9999999999995001,0,0,0.9999999999995001,9.999999996956888e-7,0,0,0.999999999999499,9.999999999998322e-7,1],"camera":0},{},{"children":[2,3]},{"extras":{"id":"11708","decal":false},"mesh":1},{"matrix":[0.03762511397313706,-0.022443893428914934,-0.0023390204895905858,0,-0.003066120601449502,-0.009590329165427366,0.0427021435240304,0,-0.02235616857953488,-0.03645745197954779,-0.00979308389595204,0,0,0,0,1],"children":[5]},{"children":[6]}],"bufferViews":[{"buffer":0,"byteOffset":0,"byteLength":48,"target":34962,"byteStride":12},{"buffer":0,"byteOffset":48,"byteLength":48,"target":34962,"byteStride":12},{"buffer":0,"byteOffset":96,"byteLength":32,"target":34962,"byteStride":8},{"buffer":0,"byteOffset":128,"byteLength":12,"target":34963},{"buffer":0,"byteOffset":140,"byteLength":348336,"target":34962,"byteStride":12},{"buffer":0,"byteOffset":348476,"byteLength":232224,"target":34962,"byteStride":8},{"buffer":0,"byteOffset":580700,"byteLength":348336,"target":34962,"byteStride":12},{"buffer":0,"byteOffset":929036,"byteLength":232224,"target":34962,"byteStride":8},{"buffer":0,"byteOffset":1161260,"byteLength":232224,"target":34962,"byteStride":8}],"buffers":[{"byteLength":1393484,"uri":"data:application/octet-stream;base64,"}],"accessors":[{"bufferView":0,"componentType":5126,"count":4,"max":[46.63076400756836,46.63076400756836,0],"min":[-46.63076400756836,-46.63076400756836,0],"type":"VEC3"},{"bufferView":1,"componentType":5126,"count":4,"max":[0,0,1],"min":[0,0,1],"type":"VEC3"},{"bufferView":2,"componentType":5126,"count":4,"max":[1,1],"min":[0,0],"type":"VEC2"},{"bufferView":3,"componentType":5123,"count":6,"max":[3],"min":[0],"type":"SCALAR"},{"bufferView":4,"componentType":5126,"count":29028,"max":[5.140000343322754,5.138222694396973,5.0400004386901855],"min":[-5.140000343322754,-5.138222694396973,-5.0400004386901855],"type":"VEC3"},{"bufferView":5,"componentType":5126,"count":29028,"max":[1,1],"min":[0,0],"type":"VEC2"},{"bufferView":6,"componentType":5126,"count":29028,"max":[0.9995331168174744,0.9995331168174744,1],"min":[-0.9995328187942505,-0.9995328187942505,-1],"type":"VEC3"},{"bufferView":7,"componentType":5126,"count":29028,"max":[0.9998322129249573,0.999832272529602],"min":[0.00016773954848758876,0.0001676815445534885],"type":"VEC2"},{"bufferView":8,"componentType":5126,"count":29028,"max":[0.9998322129249573,0.999832272529602],"min":[0.00016773954848758876,0.0001676815445534885],"type":"VEC2"}],"materials":[{"pbrMetallicRoughness":{"baseColorFactor":[0.057805430183792694,0.057805430183792694,0.057805430183792694,1],"metallicFactor":0,"roughnessFactor":0.9},"extensions":{"KHR_materials_unlit":{}}},{"pbrMetallicRoughness":{"metallicFactor":0,"roughnessFactor":0.04,"baseColorTexture":{"index":0,"texCoord":0}},"doubleSided":true,"extensions":{"KHR_materials_iridescence":{"iridescenceFactor":1,"iridescenceIor":1.3,"iridescenceThicknessMinimum":100,"iridescenceThicknessMaximum":400}}}],"meshes":[{"primitives":[{"mode":4,"attributes":{"POSITION":0,"NORMAL":1,"TEXCOORD_0":2},"indices":3,"material":0}]},{"primitives":[{"mode":4,"attributes":{"POSITION":4,"TEXCOORD_0":5,"NORMAL":6,"TEXCOORD_1":7,"TEXCOORD_2":8},"material":1}]}],"cameras":[{"type":"perspective","perspective":{"aspectRatio":1,"yfov":0.8726646259971648,"zfar":2000,"znear":0.1}}],"textures":[{"sampler":0,"source":0}],"samplers":[{"magFilter":9729,"minFilter":9987,"wrapS":33071,"wrapT":33071}],"images":[{"mimeType":"image/png","uri":"data:image/png;base64,"}],"extensionsUsed":["KHR_materials_unlit","KHR_materials_iridescence"]}