<svg width="323" height="299" viewBox="0 0 323 299" fill="none" xmlns="http://www.w3.org/2000/svg">
<mask id="mask0_182_15" style="mask-type:luminance" maskUnits="userSpaceOnUse" x="0" y="0" width="323" height="299">
<path d="M323 0H0V299H323V0Z" fill="white"/>
</mask>
<g mask="url(#mask0_182_15)">
<path d="M131.596 68.3887C132.501 68.4105 133.407 68.4376 134.312 68.4697C136.435 71.4348 139.005 76.2076 140.881 79.4658L152.269 99.2832L152.27 99.2842C154.425 103.023 157.181 108.011 159.653 111.585L160.452 112.739L161.282 111.606C162.343 110.159 163.706 107.801 165.017 105.458C166.345 103.082 167.627 100.708 168.568 99.1309C171.565 94.1115 174.456 88.9234 177.354 83.7686C180.18 78.7436 183.014 73.7478 185.973 68.9365C188.014 68.6369 191.215 68.5217 194.544 68.4873C198.107 68.4505 201.679 68.5044 204.022 68.5V68.501C216.19 68.5798 228.359 68.5438 240.526 68.3975C242.149 71.0207 246.818 78.9185 251.277 86.666C253.659 90.8044 255.977 94.889 257.731 98.0908C258.609 99.6926 259.343 101.068 259.873 102.114C260.138 102.638 260.349 103.072 260.499 103.407C260.574 103.574 260.631 103.71 260.672 103.816C260.692 103.869 260.707 103.911 260.718 103.942L260.731 103.989C260.747 104.058 260.756 104.209 260.712 104.465C260.669 104.711 260.587 104.996 260.478 105.305C260.257 105.924 259.956 106.545 259.733 106.995C259.181 108.111 258.544 109.206 257.879 110.319C257.22 111.423 256.525 112.557 255.888 113.702C252.056 120.592 248.125 127.403 244.19 134.246V134.248L219.285 177.738C214.135 186.718 209.12 194.942 204.115 204.197C203.123 205.668 202.214 207.336 201.346 208.976C200.458 210.652 199.616 212.29 198.734 213.75C195.053 219.85 191.657 226.1 187.963 232.081C183.791 232.715 178.71 232.57 174.361 232.527C160.802 232.393 147.217 232.429 133.693 232.263C133.236 231.783 132.682 231.065 132.066 230.163C131.339 229.099 130.562 227.837 129.797 226.536C128.245 223.897 126.836 221.26 125.932 219.688V219.688L116.205 202.793V202.792L81.459 142.484V142.483L67.6357 118.552C65.2391 114.375 62.0573 109.203 60.1445 104.944C60.4228 103.804 60.6988 102.946 61.2051 101.947L61.46 101.467C63.7018 97.4128 66.0793 93.4477 68.4512 89.4473C70.8131 85.4635 73.1654 81.4484 75.3467 77.3145C75.9537 76.353 76.8926 74.5285 77.792 72.915C78.2612 72.0732 78.7308 71.2675 79.1699 70.6006C79.6243 69.9104 79.9926 69.4527 80.249 69.2373C80.2913 69.2019 80.4644 69.1009 80.8701 68.9883C81.25 68.8828 81.7425 68.7913 82.3301 68.7158C83.5037 68.5652 84.9632 68.489 86.4688 68.4561C89.5052 68.3897 92.5211 68.499 93.7314 68.498V68.499L117.819 68.5293V68.5303C121.789 68.5382 127.305 68.719 131.236 68.418L131.24 68.417L131.596 68.3887ZM188.909 202.448C179.571 202.927 168.66 202.33 158.907 202.42L158.527 202.423L158.245 202.679C157.644 203.224 156.845 204.362 156.017 205.667C155.161 207.014 154.197 208.665 153.259 210.339C151.387 213.679 149.588 217.174 148.937 218.623L148.333 219.966L149.804 220.031C156.196 220.318 162.829 220.284 169.201 220.228C171.954 220.203 177.221 220.369 179.984 220.079L180.412 220.034L180.674 219.692C181.41 218.729 181.937 217.605 182.427 216.709L182.428 216.71C184.801 212.373 187.103 208.067 189.795 203.998L190.888 202.347L188.909 202.448ZM82.8311 89.0107C81.6309 91.6281 80.0907 94.1738 78.5498 96.7295C77.022 99.2634 75.4879 101.815 74.377 104.365L74.2021 104.767L74.3779 105.167C75.0479 106.693 75.8586 108.117 76.6953 109.5C82.0354 118.326 87.0606 127.317 92.2402 136.274L122.352 188.445C123.01 189.586 126.151 195.154 129.363 200.732C130.952 203.492 132.537 206.216 133.79 208.309C134.416 209.354 134.963 210.248 135.388 210.912C135.6 211.243 135.786 211.526 135.94 211.744C136.069 211.926 136.241 212.161 136.41 212.31L137.395 213.17L137.968 211.995C139.034 209.81 140.716 207.072 142.362 204.248C143.979 201.475 145.568 198.606 146.326 196.292L146.454 195.901L146.271 195.534C144.908 192.807 143.213 190.125 141.675 187.531L141.026 186.425L132.661 171.829L132.659 171.825L107.934 129.181H107.935L91.2207 99.8857L91.2188 99.8828L89.9229 97.6055C89.337 96.5766 88.6362 95.352 87.9365 94.1543C87.2349 92.9531 86.5261 91.7643 85.9248 90.8076C85.6246 90.3299 85.3466 89.9021 85.1064 89.5566C84.8793 89.2299 84.6472 88.919 84.4443 88.7178L83.4277 87.709L82.8311 89.0107ZM114.602 80.7188C108.919 80.6812 102.934 80.7637 101.104 80.7607H101.085L96.4307 80.8457L94.7842 80.876L95.5703 82.3232C101.256 92.7938 107.967 103.856 113.964 114.169L137.476 154.826V154.827L151.109 178.369L151.111 178.372C152.994 181.598 155.92 186.992 158.094 189.999L158.395 190.416L158.909 190.413L184.802 190.266C185.138 190.265 185.421 190.279 185.695 190.292C185.96 190.304 186.244 190.318 186.523 190.305C187.148 190.275 187.714 190.116 188.396 189.699L188.801 189.452L188.865 188.982C188.91 188.657 188.983 188.233 188.941 187.818C188.893 187.338 188.708 186.924 188.412 186.49C185.665 182.473 183.335 178.194 180.874 173.901L180.872 173.898L154.53 128.347H154.529L136.381 96.9365L136.38 96.9355L135.457 95.3105C134.464 93.5378 133.279 91.3663 132.061 89.2012C130.456 86.3512 128.795 83.5131 127.53 81.8047L127.389 81.6133L127.176 81.5068L126.982 81.4219C126.782 81.3458 126.562 81.2927 126.359 81.252C126.068 81.1934 125.722 81.1432 125.338 81.0996C124.569 81.0123 123.591 80.9455 122.482 80.8926C120.261 80.7867 117.454 80.7376 114.602 80.7188ZM241.164 110.695C232.987 110.769 224.126 110.314 215.826 110.612H215.821L211.574 110.785L211.099 110.805L210.813 111.187C209.221 113.318 207.291 116.877 205.99 119.128L205.987 119.133L197.307 134.322L189.18 148.264L189.178 148.267C188.917 148.717 188.59 149.262 188.229 149.866C187.869 150.466 187.48 151.119 187.104 151.771C186.37 153.049 185.638 154.414 185.311 155.413L185.186 155.794L185.358 156.155C186.026 157.556 186.728 158.903 187.499 160.244L187.834 160.818C189.959 164.411 192.03 168.047 194.109 171.688C196.187 175.328 198.271 178.974 200.414 182.577L201.321 184.102L202.156 182.536C202.776 181.374 203.471 179.94 204.15 178.597C204.842 177.229 205.525 175.94 206.158 174.978L206.19 174.929L206.217 174.877C209.119 169.099 212.547 163.417 216.027 157.715C219.501 152.024 223.03 146.309 226.098 140.511C228.616 135.752 231.409 131.113 234.182 126.423C236.948 121.743 239.69 117.018 242.071 112.134L242.78 110.681L241.164 110.695ZM189.028 88.9814C184.569 95.9017 179.999 104.585 175.742 111.677C174.006 114.567 169.158 122.576 167.901 125.266L167.704 125.688L167.901 126.111C168.367 127.109 170.362 130.784 172.362 134.239C173.366 135.973 174.383 137.672 175.224 138.972C175.642 139.619 176.027 140.183 176.35 140.606C176.51 140.817 176.669 141.009 176.817 141.165C176.932 141.285 177.153 141.507 177.44 141.623L178.298 141.969L178.71 141.142C182.993 132.541 189.111 123.258 193.921 114.663C194.771 113.144 195.819 111.528 196.871 109.863C197.911 108.217 198.952 106.528 199.732 104.927L199.98 104.418L199.672 103.943C198.999 102.91 197.016 99.4165 195.046 96.0117C194.069 94.3239 193.102 92.669 192.32 91.3838C191.93 90.7422 191.58 90.1841 191.296 89.7568C191.154 89.5437 191.022 89.3545 190.906 89.2002C190.804 89.0643 190.67 88.895 190.526 88.7695L189.655 88.0078L189.028 88.9814ZM230.207 80.8867C221.089 80.9225 211.648 80.6864 202.496 80.8936L200.551 80.9375L201.719 82.4941C202.304 83.2732 204.217 86.5377 206.133 89.9619C208.047 93.3832 209.854 96.7649 210.251 97.7559L210.475 98.3154L211.074 98.3779C215.359 98.8296 220.645 98.7791 225.964 98.6562C231.313 98.5327 236.697 98.3366 241.276 98.4805L242.275 98.5117L242.308 97.5127C242.314 97.3237 242.265 97.1606 242.252 97.1133C242.229 97.0333 242.2 96.9503 242.171 96.874C242.112 96.7196 242.032 96.531 241.938 96.3213C241.747 95.8981 241.477 95.3381 241.155 94.6914C240.51 93.3953 239.639 91.7172 238.735 90.0186C237.831 88.3195 236.89 86.5929 236.104 85.1992C235.434 84.0122 234.84 82.999 234.478 82.4766L234.337 82.2842C233.771 81.5573 233.019 81.2107 232.287 81.0459C231.582 80.8872 230.831 80.8843 230.207 80.8867Z" fill="#FF3232" stroke="url(#paint0_linear_182_15)" stroke-width="2"/>
</g>
<defs>
<linearGradient id="paint0_linear_182_15" x1="100" y1="56.5" x2="215" y2="245" gradientUnits="userSpaceOnUse">
<stop stop-color="#FFBEBE"/>
<stop offset="0.25" stop-color="#FF6666"/>
<stop offset="1" stop-color="#FF4242"/>
</linearGradient>
</defs>
</svg>
