<?xml version="1.0" encoding="utf-8" ?><svg xmlns="http://www.w3.org/2000/svg" xmlns:xlink="http://www.w3.org/1999/xlink" width="323" height="299" viewBox="0 0 323 299"><clipPath id="cl_3"><rect width="323" height="299"/></clipPath><g clip-path="url(#cl_3)"><path fill="#FF3232" transform="translate(-128 -66)" d="M259.57 133.388C260.658 133.414 261.747 133.447 262.835 133.488C265.056 136.473 267.822 141.622 269.748 144.968L281.136 164.785C283.31 168.555 286.034 173.486 288.476 177.016C290.513 174.237 293.808 167.806 295.71 164.619C301.686 154.608 307.246 143.922 313.361 134.022C317.552 133.284 327.407 133.51 332.029 133.501C344.379 133.581 356.73 133.544 369.08 133.392C371.642 137.424 389.148 167.302 389.707 169.768C389.934 170.766 389.074 172.54 388.63 173.439C387.488 175.746 386.016 177.933 384.762 180.188C380.926 187.086 376.991 193.904 373.058 200.745L348.153 244.236C342.979 253.258 337.981 261.451 332.977 270.708C331.033 273.574 329.391 277.285 327.591 280.267C323.883 286.411 320.343 292.929 316.573 299C312.211 299.734 306.808 299.572 302.352 299.528C288.691 299.393 274.922 299.431 261.279 299.259C258.912 297.094 254.801 289.205 253.065 286.187L243.339 269.292L208.593 208.984L194.77 185.052C192.345 180.826 189.016 175.425 187.092 171.044C187.455 169.495 187.796 168.408 188.585 166.983C193.087 158.842 198.134 151.059 202.481 142.816C203.654 140.976 206.1 135.737 207.606 134.472C209.289 133.059 219.457 133.501 221.733 133.499L245.822 133.531C249.849 133.539 255.281 133.718 259.16 133.421L259.57 133.388ZM224.449 147.846C230.126 158.3 236.818 169.331 242.829 179.667L266.341 220.326L279.975 243.868C281.892 247.153 284.768 252.459 286.904 255.413L312.8 255.266C314.259 255.265 314.784 255.513 315.875 254.846C315.981 254.077 316.055 253.74 315.587 253.055C312.811 248.995 310.453 244.665 308.007 240.399L281.665 194.848L263.515 163.437C261.254 159.533 257.17 151.7 254.727 148.4C252.797 147.429 232.846 147.767 229.103 147.761L224.449 147.846ZM203.294 170.765C203.938 172.232 204.722 173.613 205.551 174.983C210.898 183.82 215.937 192.834 221.107 201.775L251.218 253.946C252.478 256.131 264.04 276.657 265.069 277.557C267.244 273.098 271.936 266.376 273.376 261.981C271.835 258.897 269.896 255.928 268.161 252.925L259.794 238.327L235.066 195.677L218.352 166.382C217.374 164.683 212.79 156.47 211.74 155.428C209.284 160.784 205.454 165.807 203.294 170.765ZM339.615 177.785C338.069 179.854 336.188 183.325 334.856 185.629L326.171 200.826L318.044 214.768C316.982 216.604 314.842 219.951 314.261 221.725C315.013 223.302 315.806 224.806 316.695 226.31C320.954 233.512 324.999 240.878 329.274 248.066C330.501 245.765 331.988 242.458 333.323 240.428C339.17 228.789 347.114 217.573 353.214 206.043C358.278 196.473 364.449 187.386 369.173 177.696C360.88 177.771 352.175 177.313 343.862 177.612L339.615 177.785ZM286.917 269.42C284.98 271.175 279.115 282.216 277.849 285.033C284.211 285.318 290.819 285.284 297.193 285.228C300.038 285.203 305.179 285.368 307.88 285.085C308.555 284.202 309.019 283.203 309.551 282.23C311.916 277.908 314.24 273.559 316.961 269.447C307.614 269.926 296.558 269.331 286.917 269.42ZM296.808 191.689C297.696 193.593 304.703 206.247 305.815 206.696C310.103 198.085 316.3 188.66 321.048 180.175C322.782 177.076 325.326 173.582 326.834 170.489C325.451 168.364 318.796 156.333 317.869 155.523C313.409 162.445 308.912 171.009 304.6 178.192C302.841 181.121 298.036 189.061 296.808 191.689ZM369.308 163.481C369.328 162.85 362.661 150.327 361.548 148.899C360.781 147.914 359.481 147.882 358.211 147.887C349.046 147.923 339.666 147.687 330.519 147.894C331.79 149.587 338.325 161.252 339.179 163.384C347.602 164.272 360.078 163.191 369.308 163.481Z"/></g></svg>