<svg width="334" height="299" viewBox="0 0 334 299" fill="none" xmlns="http://www.w3.org/2000/svg">
<g clip-path="url(#clip0_185_10)">
<mask id="mask0_185_10" style="mask-type:luminance" maskUnits="userSpaceOnUse" x="0" y="0" width="334" height="299">
<path d="M334 0H0V299H334V0Z" fill="white"/>
</mask>
<g mask="url(#mask0_185_10)">
<path d="M158.708 49.2803C216.871 45.1568 267.434 86.9809 271.711 142.586C275.986 198.186 232.373 246.645 174.211 250.726C116.077 254.805 65.5629 212.99 61.2891 157.414C57.0173 101.844 100.581 53.4006 158.708 49.2803ZM231.351 147.315C225.439 147.694 219.535 148.566 213.759 150.855C201.088 155.877 187.645 165.682 177.982 177.748C168.328 189.805 162.34 204.266 164.892 218.567C165.852 223.948 169.191 227.883 173.522 230.45C177.839 233.008 183.171 234.234 188.273 234.237H188.293L188.312 234.236C203.748 233.654 220.409 224.651 233.126 212.161C245.837 199.677 254.814 183.506 254.599 168.388C254.504 161.766 252.028 156.568 247.859 152.986C243.711 149.422 237.971 147.53 231.447 147.314L231.399 147.312L231.351 147.315ZM186.771 71.1572C178.228 64.5669 165.954 61.737 155.192 62.2695H155.178C134.07 63.6284 113.485 73.9283 98.5029 89.0928C83.5199 104.258 74.0637 124.37 75.3721 145.399C76.1836 158.445 81.8214 168.501 90.5918 175.229C99.3418 181.94 111.138 185.287 124.219 185.092L124.262 185.091L124.305 185.087C149.725 182.509 168.154 171.94 184.639 153.045C194.295 141.977 201.594 126.793 203.118 111.742C204.645 96.6607 200.366 81.6447 186.771 71.1572ZM227.027 93.96L226.913 93.9629L226.802 93.9902C221.012 95.4591 217.408 99.0191 215.729 103.52C214.067 107.976 214.321 113.268 216.025 118.25C219.423 128.183 228.775 137.349 241.294 136.48L241.409 136.473L241.519 136.438C247.024 134.747 250.428 131.154 251.988 126.719C253.535 122.321 253.248 117.174 251.566 112.319C248.214 102.639 239.15 93.7129 227.027 93.96Z" fill="#FFD82C" stroke="url(#paint0_linear_185_10)" stroke-width="2"/>
</g>
</g>
<defs>
<linearGradient id="paint0_linear_185_10" x1="107.5" y1="48" x2="228.5" y2="252" gradientUnits="userSpaceOnUse">
<stop stop-color="#FFEB95"/>
<stop offset="0.318136" stop-color="#FFEEA6"/>
<stop offset="1" stop-color="#FFD82C"/>
</linearGradient>
<clipPath id="clip0_185_10">
<rect width="334" height="299" fill="white"/>
</clipPath>
</defs>
</svg>
