<?xml version="1.0" encoding="utf-8" ?><svg xmlns="http://www.w3.org/2000/svg" xmlns:xlink="http://www.w3.org/1999/xlink" width="278" height="249" viewBox="0 0 278 249"><clipPath id="cl_3"><rect x="-3.0517578e-05" y="1.5258789e-05" width="278" height="249.00002"/></clipPath><g clip-path="url(#cl_3)"><path fill="#FFD82C" transform="matrix(1.09881 0 0 1.05957 -139.549 -143.043)" d="M245.101 184.574C281.779 181.859 313.709 209.399 316.411 246.077C319.112 282.756 291.56 314.676 254.88 317.363C218.22 320.049 186.321 292.515 183.621 255.856C180.922 219.197 208.443 187.287 245.101 184.574ZM223.575 273.219C239.292 271.555 250.672 264.747 260.884 252.525C272.809 238.253 278.889 213.377 262.307 200.021C257.112 195.837 249.597 194.013 242.978 194.355C216.928 196.106 192.063 220.922 193.672 247.923C194.665 264.591 207.434 273.471 223.575 273.219ZM263.628 305.297C282.517 304.553 304.728 282.221 304.465 262.978C304.351 254.674 298.548 250.14 290.597 249.866C286.934 250.111 283.316 250.673 279.79 252.132C264.157 258.601 246.523 277.449 249.626 295.607C250.75 302.183 257.431 305.293 263.628 305.297ZM296.73 241.491C309.74 237.317 302.339 214.733 287.867 215.041C274.175 218.668 281.807 242.572 296.73 241.491Z"/></g></svg>