<svg width="119" height="128" viewBox="0 0 119 128" fill="none" xmlns="http://www.w3.org/2000/svg">
<path d="M56.0158 0.892361C58.9829 0.55265 63.1233 0.844544 66.0243 1.51687C69.5236 2.32781 73.5106 4.71553 76.6434 6.46706C80.776 8.76727 84.8834 11.1121 88.9649 13.5011C92.8528 15.7326 96.7231 17.9944 100.575 20.2861C102.944 21.6951 106.42 23.7172 108.442 25.4016C113.291 29.5686 117.205 36.1576 117.54 42.6524C117.865 48.9645 117.715 55.5935 117.718 61.9644L117.721 75.2869C117.714 84.8955 118.047 91.6019 111.417 99.3512C109.934 101.065 108.23 102.577 106.351 103.847C104.154 105.352 101.112 107.02 98.7791 108.36L86.5476 115.374L76.8655 120.99C72.0355 123.8 68.5212 126.211 62.8125 126.66C52.995 127.009 51.2881 126.543 42.78 121.671L30.8296 114.69L18.5599 107.677C15.7232 106.041 12.4412 104.26 9.97679 102.196C5.99613 98.8614 2.429 93.6005 1.48093 88.4636C1.26277 87.2813 0.853455 83.415 0.825416 82.1192C0.704714 76.5557 0.764225 70.7959 0.767787 65.2221L0.770697 52.7307C0.767135 48.0152 0.549108 42.8382 1.69358 38.2466C4.30513 27.7687 12.3779 23.3358 20.9713 18.4482L31.2336 12.5528L41.608 6.64937C44.3879 5.06724 46.7307 3.59056 49.7243 2.33697C51.7259 1.50918 53.8524 1.02098 56.0158 0.892361ZM73.9645 113.469C79.8772 109.98 85.8237 106.547 91.8037 103.174C95.7097 100.96 101.221 98.1651 104.634 95.4224C109.777 91.2896 110.819 81.2183 107.643 75.6683C106.861 74.3021 103.807 72.6029 104.053 71.1083C105.082 68.3352 108.757 64.4961 109.071 61.592C109.6 56.6983 110.214 49.5724 108.438 44.973C107.381 42.2348 104.026 41.1913 101.271 41.5075C98.9481 42.0638 83.2387 51.493 79.9899 53.3541L71.2552 58.3259C67.5221 60.4478 63.0009 62.2761 62.4706 67.182C62.051 71.056 62.2834 74.5144 62.3171 78.3555C62.343 86.7121 61.7997 95.1036 62.3806 103.459C62.5237 105.519 62.0788 109.556 62.6635 111.37C64.5298 117.156 70.1951 115.808 73.9645 113.469Z" fill="#5233CE" stroke="url(#paint0_linear_180_12)" stroke-width="1.5"/>
<defs>
<linearGradient id="paint0_linear_180_12" x1="37.8419" y1="0.984444" x2="117.426" y2="127.072" gradientUnits="userSpaceOnUse">
<stop stop-color="white"/>
<stop offset="0.141033" stop-color="#A189FF"/>
<stop offset="0.316828" stop-color="#8162FF"/>
<stop offset="1" stop-color="#5233CE"/>
</linearGradient>
</defs>
</svg>
