<svg width="181" height="196" viewBox="0 0 181 196" fill="none" xmlns="http://www.w3.org/2000/svg">
<path d="M85.3467 0.220596C89.9287 -0.305804 96.3227 0.146501 100.803 1.1883C106.207 2.4449 112.364 6.1448 117.202 8.8589C123.584 12.4232 129.927 16.0567 136.23 19.7585C142.234 23.2164 148.211 26.7211 154.16 30.2723C157.818 32.4555 163.186 35.589 166.308 38.199C173.797 44.656 179.841 54.866 180.358 64.93C180.86 74.711 180.629 84.983 180.633 94.855L180.638 115.499C180.627 130.388 181.141 140.78 170.902 152.788C168.612 155.444 165.981 157.787 163.079 159.755C159.686 162.086 154.989 164.671 151.386 166.748L132.497 177.616L117.545 186.319C110.086 190.673 104.659 194.409 95.8427 195.104C80.6817 195.645 78.0457 194.923 64.9067 187.374L46.4517 176.557L27.5037 165.69C23.1231 163.154 18.0547 160.394 14.2489 157.196C8.10157 152.029 2.59286 143.877 1.12876 135.917C0.791864 134.085 0.159765 128.094 0.116465 126.086C-0.0699349 117.465 0.0219682 108.54 0.0274682 99.903L0.0319619 80.547C0.0264619 73.24 -0.310237 65.218 1.45716 58.103C5.49016 41.867 17.9569 34.998 31.2277 27.4244L47.0757 18.2891L63.0967 9.1414C67.3897 6.6898 71.0077 4.4016 75.6307 2.4591C78.7217 1.1764 82.0057 0.419896 85.3467 0.220596ZM113.065 174.665C122.196 169.258 131.379 163.939 140.614 158.711C146.646 155.281 155.157 150.95 160.427 146.7C168.37 140.296 169.979 124.69 165.074 116.09C163.867 113.973 159.15 111.34 159.531 109.024C161.119 104.727 166.795 98.778 167.28 94.278C168.097 86.695 169.045 75.653 166.302 68.526C164.67 64.283 159.489 62.666 155.234 63.156C151.647 64.018 127.387 78.629 122.37 81.513L108.881 89.217C103.116 92.505 96.1337 95.338 95.3147 102.94C94.6667 108.943 95.0257 114.302 95.0777 120.254C95.1177 133.203 94.2787 146.206 95.1757 159.153C95.3967 162.346 94.7097 168.601 95.6127 171.412C98.4947 180.377 107.244 178.288 113.065 174.665Z" fill="#5233CE"/>
</svg>
