<svg width="404" height="404" viewBox="0 0 404 404" fill="none" xmlns="http://www.w3.org/2000/svg">
<mask id="path-1-inside-1_183_8" fill="white">
<path d="M181.781 74.0261C187.784 73.8738 192.187 74.3495 197.917 76.4868C204.875 79.082 211.779 81.7998 218.699 84.4971L252.914 97.7754L273.341 105.645C281.026 108.598 289.398 111.465 296.186 116.102C304.75 121.922 311.599 129.911 316.026 139.246C318.762 144.991 320.56 151.133 321.353 157.442C322.027 163.043 321.918 171.328 321.912 177.034L321.896 203.46L321.928 235.155C321.929 243.575 322.495 253.169 320.442 261.31C315.877 279.412 295.492 291.305 277.384 286.591C271.067 284.947 263.766 281.683 257.534 279.299L210.284 261.016L195.233 255.107C188.296 252.371 182.09 249.726 174.629 248.611C164.534 247.101 154.22 248.257 144.714 251.96C139.498 253.932 129.511 258.816 127.208 264.27C126.037 267.064 126.083 270.217 127.335 272.976C128.116 274.742 129.822 276.993 131.509 277.837C136.832 280.501 143.608 282.835 149.202 284.97L181.127 297.335L201.664 305.235C205.656 306.812 209.546 308.464 213.615 309.857C223.553 313.257 233.913 307.144 235.378 296.701C235.669 294.618 235.652 292.244 236.331 290.255C241.278 291.674 246.097 293.928 250.921 295.723C252.346 296.253 253.788 296.872 255.135 297.571C255.015 300.734 253.941 304.557 252.767 307.48C249.122 316.376 242.11 323.486 233.245 327.277C227.023 329.922 219.657 330.614 213.002 329.466C208.419 328.675 203.281 326.464 198.866 324.762L179.978 317.419L141.644 302.566C134.485 299.8 127.266 297.027 120.151 294.247C104.63 288.238 93.0795 277.202 86.6593 261.884C81.5353 249.66 82.0705 239.763 82.0696 226.923L82.0795 198.265L82.0561 167.278C82.0561 162.215 81.8438 154.561 82.245 149.658C82.5509 145.718 83.4927 141.854 85.0319 138.213C88.6752 129.505 95.6964 122.633 104.502 119.157C116.783 114.197 126.161 116.744 137.712 121.275C141.374 122.688 145.016 124.151 148.638 125.662C148.62 125.511 148.605 125.36 148.592 125.207C148.355 122.542 148.571 118.813 148.483 116.056C148.118 104.538 149.598 95.4607 157.292 86.32C163.238 79.2566 172.522 74.7875 181.781 74.0261ZM148.784 165.29C152.843 166.988 157.145 168.418 161.229 170.085C163.417 170.977 165.909 171.783 167.933 172.98C168.225 176.678 168.1 180.517 168.176 184.254C168.383 194.444 171.003 204.596 176.357 213.368C182.376 223.595 191.3 231.819 202.004 237.004C204.259 238.085 206.877 239.132 209.231 239.988C218.123 243.223 226.914 246.986 235.833 250.115C235.188 229.726 238.94 212.619 229.117 193.553C226.026 187.502 221.9 182.034 216.925 177.393C212.682 173.408 207.884 170.053 202.681 167.43C197.618 164.897 190.746 162.489 185.311 160.413L159.959 150.7L137.112 141.811C131.732 139.699 123.044 135.63 117.47 135.829C117.262 135.836 117.054 135.846 116.846 135.857C108.634 137.187 102.769 141.5 101.976 150.347C101.42 156.558 101.666 162.964 101.67 169.215L101.696 202.268L101.679 225.522C101.677 232.317 100.204 239.867 106.402 244.293C108.734 245.93 111.629 246.567 114.435 246.057C119.133 245.209 128.659 237.438 131.989 234.054C134.481 231.491 136.746 228.719 138.759 225.769C149.626 209.505 148.66 196.137 148.559 177.772C148.539 174.192 148.302 168.647 148.784 165.29ZM255.418 257.803L266.687 262.23C267.875 262.696 271.04 264 272.205 264.317C276.447 266.036 281.286 268.185 285.921 268.209C292.43 268.242 298.602 263.84 301.013 257.875C301.663 256.232 302.052 254.498 302.168 252.736C302.474 247.826 302.234 240.418 302.225 235.305L302.219 203.147L302.223 180.12C302.224 175.916 302.578 169.939 301.867 165.934C300.89 160.424 294.728 157.397 289.616 157.792C279.731 160.396 268.12 172.858 263.077 181.497C259.711 187.35 257.418 193.751 256.306 200.404C255.155 207.209 255.418 214.237 255.43 221.141L255.466 245.233C255.467 249.249 255.577 253.85 255.418 257.803ZM258.958 152.091C267.094 148.732 281.591 142.194 276.502 131C273.997 125.491 266.283 123.53 260.895 121.498L212.428 102.764L199.401 97.6751C194.382 95.6972 187.765 92.6219 182.341 93.4855C177.803 94.212 174.074 96.0824 171.349 99.8564C170.06 101.633 169.164 103.662 168.721 105.809C167.116 113.329 168.512 124.694 168.172 132.496C168.13 133.463 175.275 135.957 176.538 136.442L190.055 141.595L209.236 149.104C212.595 150.412 217.209 152.297 220.577 153.351C223.973 154.401 227.455 155.154 230.982 155.599C239.051 156.601 247.24 155.862 254.996 153.436C256.329 153.025 257.65 152.577 258.958 152.091Z"/>
</mask>
<path d="M181.781 74.0261C187.784 73.8738 192.187 74.3495 197.917 76.4868C204.875 79.082 211.779 81.7998 218.699 84.4971L252.914 97.7754L273.341 105.645C281.026 108.598 289.398 111.465 296.186 116.102C304.75 121.922 311.599 129.911 316.026 139.246C318.762 144.991 320.56 151.133 321.353 157.442C322.027 163.043 321.918 171.328 321.912 177.034L321.896 203.46L321.928 235.155C321.929 243.575 322.495 253.169 320.442 261.31C315.877 279.412 295.492 291.305 277.384 286.591C271.067 284.947 263.766 281.683 257.534 279.299L210.284 261.016L195.233 255.107C188.296 252.371 182.09 249.726 174.629 248.611C164.534 247.101 154.22 248.257 144.714 251.96C139.498 253.932 129.511 258.816 127.208 264.27C126.037 267.064 126.083 270.217 127.335 272.976C128.116 274.742 129.822 276.993 131.509 277.837C136.832 280.501 143.608 282.835 149.202 284.97L181.127 297.335L201.664 305.235C205.656 306.812 209.546 308.464 213.615 309.857C223.553 313.257 233.913 307.144 235.378 296.701C235.669 294.618 235.652 292.244 236.331 290.255C241.278 291.674 246.097 293.928 250.921 295.723C252.346 296.253 253.788 296.872 255.135 297.571C255.015 300.734 253.941 304.557 252.767 307.48C249.122 316.376 242.11 323.486 233.245 327.277C227.023 329.922 219.657 330.614 213.002 329.466C208.419 328.675 203.281 326.464 198.866 324.762L179.978 317.419L141.644 302.566C134.485 299.8 127.266 297.027 120.151 294.247C104.63 288.238 93.0795 277.202 86.6593 261.884C81.5353 249.66 82.0705 239.763 82.0696 226.923L82.0795 198.265L82.0561 167.278C82.0561 162.215 81.8438 154.561 82.245 149.658C82.5509 145.718 83.4927 141.854 85.0319 138.213C88.6752 129.505 95.6964 122.633 104.502 119.157C116.783 114.197 126.161 116.744 137.712 121.275C141.374 122.688 145.016 124.151 148.638 125.662C148.62 125.511 148.605 125.36 148.592 125.207C148.355 122.542 148.571 118.813 148.483 116.056C148.118 104.538 149.598 95.4607 157.292 86.32C163.238 79.2566 172.522 74.7875 181.781 74.0261ZM148.784 165.29C152.843 166.988 157.145 168.418 161.229 170.085C163.417 170.977 165.909 171.783 167.933 172.98C168.225 176.678 168.1 180.517 168.176 184.254C168.383 194.444 171.003 204.596 176.357 213.368C182.376 223.595 191.3 231.819 202.004 237.004C204.259 238.085 206.877 239.132 209.231 239.988C218.123 243.223 226.914 246.986 235.833 250.115C235.188 229.726 238.94 212.619 229.117 193.553C226.026 187.502 221.9 182.034 216.925 177.393C212.682 173.408 207.884 170.053 202.681 167.43C197.618 164.897 190.746 162.489 185.311 160.413L159.959 150.7L137.112 141.811C131.732 139.699 123.044 135.63 117.47 135.829C117.262 135.836 117.054 135.846 116.846 135.857C108.634 137.187 102.769 141.5 101.976 150.347C101.42 156.558 101.666 162.964 101.67 169.215L101.696 202.268L101.679 225.522C101.677 232.317 100.204 239.867 106.402 244.293C108.734 245.93 111.629 246.567 114.435 246.057C119.133 245.209 128.659 237.438 131.989 234.054C134.481 231.491 136.746 228.719 138.759 225.769C149.626 209.505 148.66 196.137 148.559 177.772C148.539 174.192 148.302 168.647 148.784 165.29ZM255.418 257.803L266.687 262.23C267.875 262.696 271.04 264 272.205 264.317C276.447 266.036 281.286 268.185 285.921 268.209C292.43 268.242 298.602 263.84 301.013 257.875C301.663 256.232 302.052 254.498 302.168 252.736C302.474 247.826 302.234 240.418 302.225 235.305L302.219 203.147L302.223 180.12C302.224 175.916 302.578 169.939 301.867 165.934C300.89 160.424 294.728 157.397 289.616 157.792C279.731 160.396 268.12 172.858 263.077 181.497C259.711 187.35 257.418 193.751 256.306 200.404C255.155 207.209 255.418 214.237 255.43 221.141L255.466 245.233C255.467 249.249 255.577 253.85 255.418 257.803ZM258.958 152.091C267.094 148.732 281.591 142.194 276.502 131C273.997 125.491 266.283 123.53 260.895 121.498L212.428 102.764L199.401 97.6751C194.382 95.6972 187.765 92.6219 182.341 93.4855C177.803 94.212 174.074 96.0824 171.349 99.8564C170.06 101.633 169.164 103.662 168.721 105.809C167.116 113.329 168.512 124.694 168.172 132.496C168.13 133.463 175.275 135.957 176.538 136.442L190.055 141.595L209.236 149.104C212.595 150.412 217.209 152.297 220.577 153.351C223.973 154.401 227.455 155.154 230.982 155.599C239.051 156.601 247.24 155.862 254.996 153.436C256.329 153.025 257.65 152.577 258.958 152.091Z" fill="#45DD9C" stroke="url(#paint0_linear_183_8)" stroke-width="4" mask="url(#path-1-inside-1_183_8)"/>
<defs>
<linearGradient id="paint0_linear_183_8" x1="119.04" y1="74.55" x2="302.832" y2="330.276" gradientUnits="userSpaceOnUse">
<stop stop-color="#C9FFE8"/>
<stop offset="1" stop-color="#35F4A2"/>
</linearGradient>
</defs>
</svg>
