<?xml version="1.0" encoding="utf-8" ?><svg xmlns="http://www.w3.org/2000/svg" xmlns:xlink="http://www.w3.org/1999/xlink" width="500" height="500" viewBox="0 0 500 500"><path fill="#45DD9C" d="M227.543 107.089C234.216 106.919 239.11 107.45 245.48 109.836C253.215 112.733 260.89 115.767 268.582 118.778L306.617 133.601L329.324 142.386C337.867 145.682 347.174 148.883 354.72 154.059C364.24 160.556 371.853 169.475 376.775 179.896C379.816 186.309 381.815 193.165 382.696 200.208C383.446 206.461 383.324 215.71 383.318 222.079L383.3 251.579L383.335 286.961C383.336 296.361 383.966 307.071 381.684 316.159C376.609 336.367 353.948 349.643 333.819 344.381C326.797 342.545 318.68 338.902 311.753 336.24L259.228 315.83L242.497 309.234C234.785 306.18 227.886 303.227 219.592 301.982C208.371 300.297 196.905 301.587 186.338 305.721C180.539 307.923 169.438 313.375 166.878 319.463C165.576 322.582 165.627 326.102 167.019 329.182C167.887 331.153 169.783 333.666 171.659 334.608C177.576 337.582 185.108 340.188 191.327 342.571L226.816 356.374L249.645 365.193C254.083 366.954 258.407 368.798 262.931 370.353C273.978 374.149 285.495 367.324 287.123 355.667C287.447 353.341 287.428 350.691 288.183 348.471C293.682 350.055 299.039 352.571 304.401 354.575C305.985 355.167 307.588 355.857 309.086 356.638C308.952 360.169 307.759 364.436 306.453 367.7C302.402 377.63 294.607 385.567 284.752 389.799C277.835 392.752 269.647 393.525 262.249 392.243C257.155 391.36 251.443 388.892 246.535 386.992L225.539 378.795L182.925 362.214C174.967 359.126 166.942 356.03 159.033 352.927C141.779 346.219 128.939 333.899 121.802 316.8C116.106 303.154 116.701 292.105 116.7 277.772L116.711 245.78L116.685 211.188C116.685 205.536 116.449 196.992 116.895 191.519C117.235 187.121 118.282 182.807 119.993 178.742C124.043 169.022 131.848 161.35 141.637 157.47C155.289 151.933 165.714 154.776 178.554 159.834C182.625 161.412 186.674 163.045 190.7 164.732C190.68 164.563 190.663 164.394 190.649 164.224C190.385 161.248 190.625 157.086 190.528 154.008C190.122 141.15 191.767 131.017 200.32 120.813C206.93 112.928 217.25 107.939 227.543 107.089ZM190.862 208.969C195.374 210.865 200.156 212.461 204.697 214.322C207.129 215.318 209.899 216.217 212.149 217.554C212.473 221.682 212.334 225.968 212.419 230.139C212.649 241.515 215.562 252.847 221.513 262.64C228.204 274.056 238.124 283.237 250.023 289.025C252.53 290.232 255.44 291.401 258.057 292.357C267.942 295.968 277.714 300.168 287.629 303.662C286.912 280.901 291.083 261.804 280.163 240.52C276.727 233.765 272.141 227.661 266.61 222.48C261.893 218.032 256.56 214.286 250.776 211.358C245.148 208.53 237.509 205.842 231.467 203.525L203.285 192.682L177.887 182.759C171.907 180.401 162.249 175.859 156.052 176.081C155.821 176.089 155.59 176.1 155.359 176.112C146.23 177.597 139.71 182.412 138.829 192.288C138.211 199.222 138.484 206.373 138.489 213.351L138.517 250.249L138.499 276.208C138.496 283.793 136.859 292.221 143.749 297.162C146.341 298.99 149.559 299.701 152.679 299.132C157.901 298.185 168.49 289.51 172.192 285.732C174.962 282.871 177.48 279.777 179.718 276.483C191.798 258.327 190.724 243.404 190.612 222.903C190.59 218.907 190.326 212.717 190.862 208.969ZM309.401 312.244L321.927 317.186C323.248 317.706 326.766 319.162 328.061 319.515C332.777 321.435 338.156 323.834 343.309 323.86C350.544 323.897 357.405 318.983 360.085 312.324C360.808 310.49 361.241 308.554 361.369 306.587C361.71 301.106 361.443 292.837 361.433 287.129L361.426 251.23L361.431 225.524C361.432 220.831 361.825 214.159 361.035 209.688C359.949 203.537 353.099 200.158 347.416 200.599C336.428 203.506 323.52 217.417 317.915 227.062C314.173 233.595 311.624 240.741 310.388 248.168C309.108 255.764 309.401 263.61 309.414 271.317L309.454 298.212C309.455 302.695 309.577 307.831 309.401 312.244ZM313.336 194.235C322.38 190.485 338.495 183.186 332.838 170.69C330.054 164.541 321.478 162.352 315.489 160.083L261.611 139.17L247.13 133.489C241.551 131.281 234.195 127.848 228.165 128.812C223.121 129.623 218.975 131.711 215.946 135.924C214.513 137.907 213.517 140.172 213.025 142.569C211.241 150.964 212.793 163.651 212.415 172.36C212.368 173.44 220.311 176.224 221.714 176.765L236.741 182.518L258.063 190.9C261.797 192.36 266.926 194.465 270.67 195.641C274.445 196.814 278.316 197.654 282.237 198.151C291.206 199.269 300.309 198.445 308.931 195.736C310.413 195.277 311.882 194.777 313.336 194.235Z"/></svg>